<svg width="24" height="24" viewBox="0 0 24 24" fill="none" xmlns="http://www.w3.org/2000/svg">
<g clip-path="url(#clip0_1021_2500)">
<path d="M12.0001 24C18.6275 24 24.0001 18.6274 24.0001 12C24.0001 5.37258 18.6275 0 12.0001 0C5.3727 0 0.00012207 5.37258 0.00012207 12C0.00012207 18.6274 5.3727 24 12.0001 24Z" fill="#F0F0F0"/>
<path d="M2.48093 4.69531C1.53832 5.9217 0.827556 7.33522 0.413696 8.8708H6.65641L2.48093 4.69531Z" fill="#0052B4"/>
<path d="M23.5869 8.87075C23.173 7.33522 22.4622 5.9217 21.5196 4.69531L17.3442 8.87075H23.5869Z" fill="#0052B4"/>
<path d="M0.413696 15.1309C0.827603 16.6664 1.53837 18.0799 2.48093 19.3063L6.65627 15.1309H0.413696Z" fill="#0052B4"/>
<path d="M19.3062 2.48134C18.0798 1.53873 16.6663 0.827969 15.1307 0.414062V6.65674L19.3062 2.48134Z" fill="#0052B4"/>
<path d="M4.69446 21.5191C5.92085 22.4617 7.33436 23.1725 8.8699 23.5864V17.3438L4.69446 21.5191Z" fill="#0052B4"/>
<path d="M8.86985 0.414062C7.33432 0.827969 5.9208 1.53873 4.69446 2.4813L8.86985 6.65669V0.414062Z" fill="#0052B4"/>
<path d="M15.1307 23.5864C16.6663 23.1725 18.0798 22.4617 19.3061 21.5191L15.1307 17.3438V23.5864Z" fill="#0052B4"/>
<path d="M17.3442 15.1309L21.5196 19.3063C22.4622 18.08 23.173 16.6664 23.5869 15.1309H17.3442Z" fill="#0052B4"/>
<path d="M23.8985 10.4348H13.5654H13.5654V0.101578C13.053 0.034875 12.5306 0 12.0001 0C11.4695 0 10.9473 0.034875 10.4349 0.101578V10.4347V10.4348H0.1017C0.0349971 10.9471 0.00012207 11.4695 0.00012207 12C0.00012207 12.5306 0.0349971 13.0529 0.1017 13.5652H10.4348H10.4349V23.8984C10.9473 23.9651 11.4695 24 12.0001 24C12.5306 24 13.053 23.9652 13.5653 23.8984V13.5653V13.5653H23.8985C23.9652 13.0529 24.0001 12.5306 24.0001 12C24.0001 11.4695 23.9652 10.9471 23.8985 10.4348Z" fill="#D80027"/>
<path d="M15.1309 15.1309L20.4857 20.4857C20.732 20.2395 20.9669 19.9821 21.191 19.7153L16.6066 15.1309H15.1309V15.1309Z" fill="#D80027"/>
<path d="M8.87 15.1309H8.8699L3.51514 20.4856C3.76132 20.7319 4.01871 20.9668 4.28553 21.191L8.87 16.6064V15.1309Z" fill="#D80027"/>
<path d="M8.87 8.86863V8.86853L3.51519 3.51367C3.26891 3.75986 3.03397 4.01725 2.80981 4.28406L7.39433 8.86858L8.87 8.86863Z" fill="#D80027"/>
<path d="M15.1309 8.86883L20.4857 3.51392C20.2395 3.26764 19.9821 3.0327 19.7153 2.80859L15.1309 7.39311V8.86883Z" fill="#D80027"/>
</g>
<defs>
<clipPath id="clip0_1021_2500">
<rect width="24" height="24" fill="white"/>
</clipPath>
</defs>
</svg>
